<svg width="506" height="507" viewBox="80 104 506 507" fill="none" xmlns="http://www.w3.org/2000/svg" aria-hidden="true">
  <path fill-rule="evenodd" clip-rule="evenodd" d="M221.084 108.343C237.126 114.896 247.074 121.211 257.566 131.5C276.968 150.526 285.926 174.133 284.699 203C283.536 230.354 275.351 250.979 258.01 270.254C244.381 285.402 216.562 303.506 183.818 318.536L173.137 323.439L177.8 328.469C199.208 351.564 286.353 443 286.956 443C287.968 443 291.737 425.242 293.535 412C295.954 394.191 297.047 375.811 297.684 342.25L298.296 310H370.648H443V327.364V344.728L428.25 345.303C402.831 346.293 388.099 351.061 377.047 361.875C369.174 369.578 364.388 379.494 357.634 402.094C350.645 425.475 339.813 456.805 333.003 473.33L327.716 486.16L333.689 492.33C336.973 495.723 352.813 512.325 368.888 529.221C384.963 546.118 399.988 561.546 402.277 563.505C411.798 571.655 423.818 574.851 448.25 575.731L464 576.299V593.649V611H525H586V357.5V104L398.25 104.009L210.5 104.018L221.084 108.343ZM141 137.691C121.652 140.93 107.49 155.033 101.989 176.542C96.313 198.738 99.404 223.88 110.538 246.068C116.119 257.191 121.908 265.597 134.768 281.254L145.243 294.008L150.872 290.835C188.589 269.574 205.145 245.963 207.904 209.5C209.331 190.655 206.957 173.953 201.158 162.038C195.699 150.819 182.78 141.511 168.5 138.507C162.045 137.149 146.917 136.7 141 137.691ZM91.932 363.571C88.394 366.144 84.262 369.402 82.75 370.811L80 373.374V418.931V464.488V555.602L87.75 560.22C104.227 570.038 120.781 573.543 146.841 572.733C181.382 571.659 204.232 564.06 228.987 545.413C234.373 541.355 241.776 534.8 245.437 530.845L252.095 523.654L246.698 518.077C243.73 515.01 210.797 479.65 173.515 439.5C136.233 399.35 104.072 364.789 102.047 362.697L98.364 358.894L91.932 363.571Z" fill="#4B4944"/>
</svg>
